<mxfile host="app.diagrams.net" modified="2020-12-26T10:49:00.603Z" agent="5.0 (Windows NT 10.0; Win64; x64) AppleWebKit/537.36 (KHTML, like Gecko) Chrome/87.0.4280.88 Safari/537.36" etag="6KRujzAUCRWDEo_qqm_8" version="14.1.2" type="github">
  <diagram id="XR312f9OlSyXZgOiWMge" name="Page-1">
    <mxGraphModel dx="1078" dy="827" grid="1" gridSize="10" guides="1" tooltips="1" connect="1" arrows="1" fold="1" page="1" pageScale="1" pageWidth="827" pageHeight="1169" math="0" shadow="0">
      <root>
        <mxCell id="0" />
        <mxCell id="1" parent="0" />
        <mxCell id="WlF7BeMnlromDZYzRZPJ-5" value="" style="edgeStyle=orthogonalEdgeStyle;rounded=0;orthogonalLoop=1;jettySize=auto;html=1;" parent="1" source="WlF7BeMnlromDZYzRZPJ-1" target="WlF7BeMnlromDZYzRZPJ-4" edge="1">
          <mxGeometry relative="1" as="geometry" />
        </mxCell>
        <mxCell id="WlF7BeMnlromDZYzRZPJ-1" value="&lt;font style=&quot;font-size: 24px&quot;&gt;Start&lt;/font&gt;" style="ellipse;whiteSpace=wrap;html=1;" parent="1" vertex="1">
          <mxGeometry x="405" y="30" width="120" height="60" as="geometry" />
        </mxCell>
        <mxCell id="WlF7BeMnlromDZYzRZPJ-7" value="" style="edgeStyle=orthogonalEdgeStyle;rounded=0;orthogonalLoop=1;jettySize=auto;html=1;" parent="1" source="WlF7BeMnlromDZYzRZPJ-4" target="WlF7BeMnlromDZYzRZPJ-6" edge="1">
          <mxGeometry relative="1" as="geometry" />
        </mxCell>
        <mxCell id="WlF7BeMnlromDZYzRZPJ-4" value="Tampilan Pelayanan" style="shape=process;whiteSpace=wrap;html=1;backgroundOutline=1;" parent="1" vertex="1">
          <mxGeometry x="405" y="120" width="120" height="60" as="geometry" />
        </mxCell>
        <mxCell id="WlF7BeMnlromDZYzRZPJ-18" value="" style="edgeStyle=orthogonalEdgeStyle;rounded=0;orthogonalLoop=1;jettySize=auto;html=1;" parent="1" source="WlF7BeMnlromDZYzRZPJ-6" target="WlF7BeMnlromDZYzRZPJ-17" edge="1">
          <mxGeometry relative="1" as="geometry" />
        </mxCell>
        <mxCell id="WlF7BeMnlromDZYzRZPJ-23" value="" style="edgeStyle=orthogonalEdgeStyle;rounded=0;orthogonalLoop=1;jettySize=auto;html=1;" parent="1" source="WlF7BeMnlromDZYzRZPJ-28" target="WlF7BeMnlromDZYzRZPJ-22" edge="1">
          <mxGeometry relative="1" as="geometry" />
        </mxCell>
        <mxCell id="WlF7BeMnlromDZYzRZPJ-26" value="" style="edgeStyle=orthogonalEdgeStyle;rounded=0;orthogonalLoop=1;jettySize=auto;html=1;" parent="1" source="WlF7BeMnlromDZYzRZPJ-31" target="WlF7BeMnlromDZYzRZPJ-25" edge="1">
          <mxGeometry relative="1" as="geometry" />
        </mxCell>
        <mxCell id="WlF7BeMnlromDZYzRZPJ-29" value="" style="edgeStyle=orthogonalEdgeStyle;rounded=0;orthogonalLoop=1;jettySize=auto;html=1;" parent="1" source="WlF7BeMnlromDZYzRZPJ-6" target="WlF7BeMnlromDZYzRZPJ-28" edge="1">
          <mxGeometry relative="1" as="geometry" />
        </mxCell>
        <mxCell id="WlF7BeMnlromDZYzRZPJ-6" value="Input User :&lt;br&gt;- Nama&amp;nbsp;&lt;br&gt;- Nama Pesanan&lt;br&gt;- Jumlah Pesanan&lt;br&gt;-Jumlah Uang" style="shape=parallelogram;perimeter=parallelogramPerimeter;whiteSpace=wrap;html=1;fixedSize=1;" parent="1" vertex="1">
          <mxGeometry x="350" y="230" width="230" height="80" as="geometry" />
        </mxCell>
        <mxCell id="WlF7BeMnlromDZYzRZPJ-20" style="edgeStyle=orthogonalEdgeStyle;rounded=0;orthogonalLoop=1;jettySize=auto;html=1;exitX=1;exitY=0.5;exitDx=0;exitDy=0;entryX=0;entryY=0.5;entryDx=0;entryDy=0;" parent="1" source="WlF7BeMnlromDZYzRZPJ-22" target="WlF7BeMnlromDZYzRZPJ-17" edge="1">
          <mxGeometry relative="1" as="geometry" />
        </mxCell>
        <mxCell id="WlF7BeMnlromDZYzRZPJ-27" style="edgeStyle=orthogonalEdgeStyle;rounded=0;orthogonalLoop=1;jettySize=auto;html=1;exitX=0;exitY=0.5;exitDx=0;exitDy=0;entryX=0.93;entryY=0.5;entryDx=0;entryDy=0;entryPerimeter=0;" parent="1" source="WlF7BeMnlromDZYzRZPJ-15" target="WlF7BeMnlromDZYzRZPJ-33" edge="1">
          <mxGeometry relative="1" as="geometry" />
        </mxCell>
        <mxCell id="hf1kpsBbzSXCtjSnibzN-7" value="" style="edgeStyle=orthogonalEdgeStyle;rounded=0;orthogonalLoop=1;jettySize=auto;html=1;" edge="1" parent="1" source="WlF7BeMnlromDZYzRZPJ-15" target="hf1kpsBbzSXCtjSnibzN-6">
          <mxGeometry relative="1" as="geometry" />
        </mxCell>
        <mxCell id="WlF7BeMnlromDZYzRZPJ-15" value="Output Transaksi :&lt;br&gt;- Kode Transaksi&lt;br&gt;- Nama User&lt;br&gt;- Tanggal Pembelian&lt;br&gt;- Nama Pesanan&lt;br&gt;- Jumlah Pesanan&lt;br&gt;- List Promo&lt;br&gt;- Total Biaya Belanja&lt;br&gt;- Jumlah Uang User&lt;br&gt;- Jumlah Kembalian User" style="shape=parallelogram;perimeter=parallelogramPerimeter;whiteSpace=wrap;html=1;fixedSize=1;" parent="1" vertex="1">
          <mxGeometry x="335" y="568" width="260" height="148" as="geometry" />
        </mxCell>
        <mxCell id="WlF7BeMnlromDZYzRZPJ-21" style="edgeStyle=orthogonalEdgeStyle;rounded=0;orthogonalLoop=1;jettySize=auto;html=1;entryX=1;entryY=0.5;entryDx=0;entryDy=0;exitX=0.5;exitY=1;exitDx=0;exitDy=0;" parent="1" source="WlF7BeMnlromDZYzRZPJ-17" target="WlF7BeMnlromDZYzRZPJ-15" edge="1">
          <mxGeometry relative="1" as="geometry">
            <Array as="points">
              <mxPoint x="655" y="642" />
            </Array>
            <mxPoint x="750" y="640" as="sourcePoint" />
          </mxGeometry>
        </mxCell>
        <mxCell id="WlF7BeMnlromDZYzRZPJ-17" value="List Promo" style="shape=process;whiteSpace=wrap;html=1;backgroundOutline=1;" parent="1" vertex="1">
          <mxGeometry x="595" y="467" width="120" height="60" as="geometry" />
        </mxCell>
        <mxCell id="WlF7BeMnlromDZYzRZPJ-24" value="" style="edgeStyle=orthogonalEdgeStyle;rounded=0;orthogonalLoop=1;jettySize=auto;html=1;entryX=0.5;entryY=0;entryDx=0;entryDy=0;" parent="1" source="WlF7BeMnlromDZYzRZPJ-22" target="WlF7BeMnlromDZYzRZPJ-15" edge="1">
          <mxGeometry relative="1" as="geometry">
            <mxPoint x="465" y="472" as="targetPoint" />
          </mxGeometry>
        </mxCell>
        <mxCell id="WlF7BeMnlromDZYzRZPJ-22" value="Algoritma Transaksi :&lt;br&gt;- Tanggal Transaksi&lt;br&gt;- Total Biaya Belanja&lt;br&gt;- Jumlah Kembalian User" style="whiteSpace=wrap;html=1;" parent="1" vertex="1">
          <mxGeometry x="390" y="462" width="150" height="70" as="geometry" />
        </mxCell>
        <mxCell id="bo4yTS-yDV8Zs3_QkuVM-3" style="edgeStyle=orthogonalEdgeStyle;rounded=0;orthogonalLoop=1;jettySize=auto;html=1;exitX=0;exitY=0.5;exitDx=0;exitDy=0;entryX=0.93;entryY=0.5;entryDx=0;entryDy=0;entryPerimeter=0;" parent="1" source="WlF7BeMnlromDZYzRZPJ-25" target="bo4yTS-yDV8Zs3_QkuVM-8" edge="1">
          <mxGeometry relative="1" as="geometry">
            <mxPoint x="130" y="149.9999999999999" as="targetPoint" />
            <Array as="points">
              <mxPoint x="50" y="462" />
              <mxPoint x="50" y="150" />
            </Array>
          </mxGeometry>
        </mxCell>
        <mxCell id="WlF7BeMnlromDZYzRZPJ-25" value="Daftar Penyimpanan :&lt;br&gt;- Jumlah Stock&lt;br&gt;- Nama Makanan&lt;br&gt;- BON&lt;br&gt;- Data Pengeluaran&lt;br&gt;- Data Pemasukan&lt;br&gt;- Untung Rugi" style="shape=process;whiteSpace=wrap;html=1;backgroundOutline=1;" parent="1" vertex="1">
          <mxGeometry x="100" y="397" width="170" height="130" as="geometry" />
        </mxCell>
        <mxCell id="WlF7BeMnlromDZYzRZPJ-28" value="Masuk &lt;br&gt;Transaksi" style="shape=process;whiteSpace=wrap;html=1;backgroundOutline=1;" parent="1" vertex="1">
          <mxGeometry x="405" y="350" width="120" height="60" as="geometry" />
        </mxCell>
        <mxCell id="WlF7BeMnlromDZYzRZPJ-30" value="" style="edgeStyle=orthogonalEdgeStyle;rounded=0;orthogonalLoop=1;jettySize=auto;html=1;" parent="1" source="WlF7BeMnlromDZYzRZPJ-6" target="WlF7BeMnlromDZYzRZPJ-28" edge="1">
          <mxGeometry relative="1" as="geometry">
            <mxPoint x="465" y="310" as="sourcePoint" />
            <mxPoint x="465" y="470" as="targetPoint" />
          </mxGeometry>
        </mxCell>
        <mxCell id="WlF7BeMnlromDZYzRZPJ-31" value="Data yang disimpan :&lt;br&gt;- Pengurangan Stock" style="strokeWidth=2;html=1;shape=mxgraph.flowchart.stored_data;whiteSpace=wrap;" parent="1" vertex="1">
          <mxGeometry x="100" y="240" width="170" height="60" as="geometry" />
        </mxCell>
        <mxCell id="WlF7BeMnlromDZYzRZPJ-32" value="" style="edgeStyle=orthogonalEdgeStyle;rounded=0;orthogonalLoop=1;jettySize=auto;html=1;entryX=0.93;entryY=0.5;entryDx=0;entryDy=0;entryPerimeter=0;" parent="1" source="WlF7BeMnlromDZYzRZPJ-6" target="WlF7BeMnlromDZYzRZPJ-31" edge="1">
          <mxGeometry relative="1" as="geometry">
            <mxPoint x="360" y="270" as="sourcePoint" />
            <mxPoint x="185.00000000000023" y="420" as="targetPoint" />
          </mxGeometry>
        </mxCell>
        <mxCell id="WlF7BeMnlromDZYzRZPJ-34" style="edgeStyle=orthogonalEdgeStyle;rounded=0;orthogonalLoop=1;jettySize=auto;html=1;entryX=0.5;entryY=1;entryDx=0;entryDy=0;" parent="1" source="WlF7BeMnlromDZYzRZPJ-33" target="WlF7BeMnlromDZYzRZPJ-25" edge="1">
          <mxGeometry relative="1" as="geometry" />
        </mxCell>
        <mxCell id="WlF7BeMnlromDZYzRZPJ-33" value="&lt;span&gt;Data yang disimpan :&lt;/span&gt;&lt;br&gt;&lt;span&gt;- BON (Semua Output)&lt;/span&gt;" style="strokeWidth=2;html=1;shape=mxgraph.flowchart.stored_data;whiteSpace=wrap;" parent="1" vertex="1">
          <mxGeometry x="105" y="612" width="160" height="60" as="geometry" />
        </mxCell>
        <mxCell id="bo4yTS-yDV8Zs3_QkuVM-4" style="edgeStyle=orthogonalEdgeStyle;rounded=0;orthogonalLoop=1;jettySize=auto;html=1;exitX=0;exitY=0.5;exitDx=0;exitDy=0;entryX=0;entryY=0.5;entryDx=0;entryDy=0;exitPerimeter=0;" parent="1" source="bo4yTS-yDV8Zs3_QkuVM-8" target="WlF7BeMnlromDZYzRZPJ-4" edge="1">
          <mxGeometry relative="1" as="geometry">
            <mxPoint x="230" y="149.9999999999999" as="sourcePoint" />
          </mxGeometry>
        </mxCell>
        <mxCell id="bo4yTS-yDV8Zs3_QkuVM-8" value="Update Data Stock" style="strokeWidth=2;html=1;shape=mxgraph.flowchart.stored_data;whiteSpace=wrap;direction=west;" parent="1" vertex="1">
          <mxGeometry x="120" y="119.99999999999989" width="100" height="60" as="geometry" />
        </mxCell>
        <mxCell id="hf1kpsBbzSXCtjSnibzN-1" value="" style="strokeWidth=2;html=1;shape=mxgraph.flowchart.annotation_2;align=left;labelPosition=right;pointerEvents=1;" vertex="1" parent="1">
          <mxGeometry x="715" y="447" width="50" height="100" as="geometry" />
        </mxCell>
        <mxCell id="hf1kpsBbzSXCtjSnibzN-2" value="Promo Gratisan :&lt;br&gt;-&amp;nbsp; Panggil Menu Donut" style="rounded=1;whiteSpace=wrap;html=1;absoluteArcSize=1;arcSize=43;strokeWidth=2;" vertex="1" parent="1">
          <mxGeometry x="765" y="410" width="100" height="63" as="geometry" />
        </mxCell>
        <mxCell id="hf1kpsBbzSXCtjSnibzN-3" value="Promo Discount :&lt;br&gt;- Pengurangan Total Biaya" style="rounded=1;whiteSpace=wrap;html=1;absoluteArcSize=1;arcSize=14;strokeWidth=2;" vertex="1" parent="1">
          <mxGeometry x="765" y="510" width="100" height="63" as="geometry" />
        </mxCell>
        <mxCell id="hf1kpsBbzSXCtjSnibzN-6" value="&lt;font style=&quot;font-size: 16px&quot;&gt;EXIT&lt;/font&gt;" style="ellipse;whiteSpace=wrap;html=1;" vertex="1" parent="1">
          <mxGeometry x="405" y="770" width="120" height="60" as="geometry" />
        </mxCell>
        <mxCell id="hf1kpsBbzSXCtjSnibzN-12" value="Pelayanan" style="rounded=1;arcSize=10;whiteSpace=wrap;html=1;align=center;" vertex="1" parent="1">
          <mxGeometry x="1400" y="330" width="100" height="40" as="geometry" />
        </mxCell>
        <mxCell id="hf1kpsBbzSXCtjSnibzN-13" value="Transaksi" style="rounded=1;arcSize=10;whiteSpace=wrap;html=1;align=center;" vertex="1" parent="1">
          <mxGeometry x="1055" y="330" width="100" height="40" as="geometry" />
        </mxCell>
        <mxCell id="hf1kpsBbzSXCtjSnibzN-16" value="Penyimpanan" style="rounded=1;arcSize=10;whiteSpace=wrap;html=1;align=center;" vertex="1" parent="1">
          <mxGeometry x="1241" y="533" width="100" height="40" as="geometry" />
        </mxCell>
        <mxCell id="hf1kpsBbzSXCtjSnibzN-17" value="Nama_Barang" style="ellipse;whiteSpace=wrap;html=1;align=center;" vertex="1" parent="1">
          <mxGeometry x="1530" y="290" width="100" height="40" as="geometry" />
        </mxCell>
        <mxCell id="hf1kpsBbzSXCtjSnibzN-18" value="Stock_Barang" style="ellipse;whiteSpace=wrap;html=1;align=center;" vertex="1" parent="1">
          <mxGeometry x="1530" y="380" width="100" height="40" as="geometry" />
        </mxCell>
        <mxCell id="hf1kpsBbzSXCtjSnibzN-19" value="Nama_User" style="ellipse;whiteSpace=wrap;html=1;align=center;" vertex="1" parent="1">
          <mxGeometry x="1240" y="40" width="100" height="40" as="geometry" />
        </mxCell>
        <mxCell id="hf1kpsBbzSXCtjSnibzN-20" value="Promo_Gratisan&lt;span style=&quot;color: rgba(0 , 0 , 0 , 0) ; font-family: monospace ; font-size: 0px&quot;&gt;%3CmxGraphModel%3E%3Croot%3E%3CmxCell%20id%3D%220%22%2F%3E%3CmxCell%20id%3D%221%22%20parent%3D%220%22%2F%3E%3CmxCell%20id%3D%222%22%20value%3D%22Nama_Donut%22%20style%3D%22ellipse%3BwhiteSpace%3Dwrap%3Bhtml%3D1%3Balign%3Dcenter%3B%22%20vertex%3D%221%22%20parent%3D%221%22%3E%3CmxGeometry%20x%3D%221310%22%20y%3D%22270%22%20width%3D%22100%22%20height%3D%2240%22%20as%3D%22geometry%22%2F%3E%3C%2FmxCell%3E%3C%2Froot%3E%3C%2FmxGraphModel%3E&lt;/span&gt;&lt;span style=&quot;color: rgba(0 , 0 , 0 , 0) ; font-family: monospace ; font-size: 0px&quot;&gt;%3CmxGraphModel%3E%3Croot%3E%3CmxCell%20id%3D%220%22%2F%3E%3CmxCell%20id%3D%221%22%20parent%3D%220%22%2F%3E%3CmxCell%20id%3D%222%22%20value%3D%22Nama_Donut%22%20style%3D%22ellipse%3BwhiteSpace%3Dwrap%3Bhtml%3D1%3Balign%3Dcenter%3B%22%20vertex%3D%221%22%20parent%3D%221%22%3E%3CmxGeometry%20x%3D%221310%22%20y%3D%22270%22%20width%3D%22100%22%20height%3D%2240%22%20as%3D%22geometry%22%2F%3E%3C%2FmxCell%3E%3C%2Froot%3E%3C%2FmxGraphModel%3E&lt;/span&gt;" style="ellipse;whiteSpace=wrap;html=1;align=center;" vertex="1" parent="1">
          <mxGeometry x="1320" y="270" width="100" height="40" as="geometry" />
        </mxCell>
        <mxCell id="hf1kpsBbzSXCtjSnibzN-21" value="Promo_Diskonan" style="ellipse;whiteSpace=wrap;html=1;align=center;" vertex="1" parent="1">
          <mxGeometry x="1165" y="270" width="100" height="40" as="geometry" />
        </mxCell>
        <mxCell id="hf1kpsBbzSXCtjSnibzN-22" value="User" style="rounded=1;arcSize=10;whiteSpace=wrap;html=1;align=center;" vertex="1" parent="1">
          <mxGeometry x="1240" y="110" width="100" height="40" as="geometry" />
        </mxCell>
        <mxCell id="hf1kpsBbzSXCtjSnibzN-25" value="Total_Kembalian" style="ellipse;whiteSpace=wrap;html=1;align=center;" vertex="1" parent="1">
          <mxGeometry x="970" y="433" width="100" height="40" as="geometry" />
        </mxCell>
        <mxCell id="hf1kpsBbzSXCtjSnibzN-26" value="Kode_Transaksi" style="ellipse;whiteSpace=wrap;html=1;align=center;fontStyle=4;" vertex="1" parent="1">
          <mxGeometry x="1000" y="260" width="100" height="40" as="geometry" />
        </mxCell>
        <mxCell id="hf1kpsBbzSXCtjSnibzN-27" value="BON" style="ellipse;shape=doubleEllipse;margin=3;whiteSpace=wrap;html=1;align=center;" vertex="1" parent="1">
          <mxGeometry x="940" y="330" width="100" height="40" as="geometry" />
        </mxCell>
        <mxCell id="hf1kpsBbzSXCtjSnibzN-29" value="Tanggal_Pembelian" style="ellipse;whiteSpace=wrap;html=1;align=center;" vertex="1" parent="1">
          <mxGeometry x="860" y="223" width="120" height="47" as="geometry" />
        </mxCell>
        <mxCell id="hf1kpsBbzSXCtjSnibzN-30" value="Nama_Pesanan" style="ellipse;whiteSpace=wrap;html=1;align=center;" vertex="1" parent="1">
          <mxGeometry x="860" y="280" width="100" height="40" as="geometry" />
        </mxCell>
        <mxCell id="hf1kpsBbzSXCtjSnibzN-31" value="Total_Biaya&lt;span style=&quot;color: rgba(0 , 0 , 0 , 0) ; font-family: monospace ; font-size: 0px&quot;&gt;%3CmxGraphModel%3E%3Croot%3E%3CmxCell%20id%3D%220%22%2F%3E%3CmxCell%20id%3D%221%22%20parent%3D%220%22%2F%3E%3CmxCell%20id%3D%222%22%20value%3D%22Nama_Barang%22%20style%3D%22ellipse%3BwhiteSpace%3Dwrap%3Bhtml%3D1%3Balign%3Dcenter%3B%22%20vertex%3D%221%22%20parent%3D%221%22%3E%3CmxGeometry%20x%3D%221310%22%20y%3D%22270%22%20width%3D%22100%22%20height%3D%2240%22%20as%3D%22geometry%22%2F%3E%3C%2FmxCell%3E%3C%2Froot%3E%3C%2FmxGraphModel%3E&lt;/span&gt;" style="ellipse;whiteSpace=wrap;html=1;align=center;" vertex="1" parent="1">
          <mxGeometry x="900" y="397" width="100" height="40" as="geometry" />
        </mxCell>
        <mxCell id="hf1kpsBbzSXCtjSnibzN-40" value="Mengakses" style="shape=rhombus;perimeter=rhombusPerimeter;whiteSpace=wrap;html=1;align=center;" vertex="1" parent="1">
          <mxGeometry x="1390" y="100" width="120" height="60" as="geometry" />
        </mxCell>
        <mxCell id="hf1kpsBbzSXCtjSnibzN-41" value="" style="endArrow=none;html=1;rounded=0;entryX=0.5;entryY=0;entryDx=0;entryDy=0;exitX=0.5;exitY=1;exitDx=0;exitDy=0;" edge="1" parent="1" source="hf1kpsBbzSXCtjSnibzN-40" target="hf1kpsBbzSXCtjSnibzN-12">
          <mxGeometry relative="1" as="geometry">
            <mxPoint x="1420" y="279.76" as="sourcePoint" />
            <mxPoint x="1420" y="209.76" as="targetPoint" />
            <Array as="points" />
          </mxGeometry>
        </mxCell>
        <mxCell id="hf1kpsBbzSXCtjSnibzN-42" value="1" style="resizable=0;html=1;align=right;verticalAlign=bottom;" connectable="0" vertex="1" parent="hf1kpsBbzSXCtjSnibzN-41">
          <mxGeometry x="1" relative="1" as="geometry">
            <mxPoint y="-2" as="offset" />
          </mxGeometry>
        </mxCell>
        <mxCell id="hf1kpsBbzSXCtjSnibzN-43" value="" style="endArrow=none;html=1;rounded=0;entryX=1;entryY=0.75;entryDx=0;entryDy=0;exitX=0;exitY=0;exitDx=0;exitDy=0;" edge="1" parent="1" source="hf1kpsBbzSXCtjSnibzN-18" target="hf1kpsBbzSXCtjSnibzN-12">
          <mxGeometry relative="1" as="geometry">
            <mxPoint x="1320" y="269.76" as="sourcePoint" />
            <mxPoint x="1480" y="269.76" as="targetPoint" />
          </mxGeometry>
        </mxCell>
        <mxCell id="hf1kpsBbzSXCtjSnibzN-46" value="" style="endArrow=none;html=1;rounded=0;entryX=1;entryY=0.25;entryDx=0;entryDy=0;exitX=0;exitY=1;exitDx=0;exitDy=0;" edge="1" parent="1" source="hf1kpsBbzSXCtjSnibzN-17" target="hf1kpsBbzSXCtjSnibzN-12">
          <mxGeometry relative="1" as="geometry">
            <mxPoint x="1485.3553390593124" y="243.90213562372492" as="sourcePoint" />
            <mxPoint x="1500" y="279.7599999999999" as="targetPoint" />
          </mxGeometry>
        </mxCell>
        <mxCell id="hf1kpsBbzSXCtjSnibzN-47" value="" style="endArrow=none;html=1;rounded=0;entryX=1;entryY=0.5;entryDx=0;entryDy=0;exitX=0;exitY=0.5;exitDx=0;exitDy=0;" edge="1" parent="1" source="hf1kpsBbzSXCtjSnibzN-40" target="hf1kpsBbzSXCtjSnibzN-22">
          <mxGeometry relative="1" as="geometry">
            <mxPoint x="1060" y="290" as="sourcePoint" />
            <mxPoint x="1220" y="290" as="targetPoint" />
          </mxGeometry>
        </mxCell>
        <mxCell id="hf1kpsBbzSXCtjSnibzN-48" value="N" style="resizable=0;html=1;align=right;verticalAlign=bottom;" connectable="0" vertex="1" parent="hf1kpsBbzSXCtjSnibzN-47">
          <mxGeometry x="1" relative="1" as="geometry">
            <mxPoint x="10.1" as="offset" />
          </mxGeometry>
        </mxCell>
        <mxCell id="hf1kpsBbzSXCtjSnibzN-49" value="Melakukan" style="shape=rhombus;perimeter=rhombusPerimeter;whiteSpace=wrap;html=1;align=center;" vertex="1" parent="1">
          <mxGeometry x="1045" y="100" width="120" height="60" as="geometry" />
        </mxCell>
        <mxCell id="hf1kpsBbzSXCtjSnibzN-50" value="" style="endArrow=none;html=1;rounded=0;entryX=0;entryY=0.5;entryDx=0;entryDy=0;exitX=1;exitY=0.5;exitDx=0;exitDy=0;" edge="1" parent="1" source="hf1kpsBbzSXCtjSnibzN-49" target="hf1kpsBbzSXCtjSnibzN-22">
          <mxGeometry relative="1" as="geometry">
            <mxPoint x="1103.57" y="302" as="sourcePoint" />
            <mxPoint x="1103.57" y="232" as="targetPoint" />
            <Array as="points" />
          </mxGeometry>
        </mxCell>
        <mxCell id="hf1kpsBbzSXCtjSnibzN-51" value="1" style="resizable=0;html=1;align=right;verticalAlign=bottom;" connectable="0" vertex="1" parent="hf1kpsBbzSXCtjSnibzN-50">
          <mxGeometry x="1" relative="1" as="geometry">
            <mxPoint y="20" as="offset" />
          </mxGeometry>
        </mxCell>
        <mxCell id="hf1kpsBbzSXCtjSnibzN-52" value="" style="endArrow=none;html=1;rounded=0;entryX=0.5;entryY=0;entryDx=0;entryDy=0;exitX=0.5;exitY=1;exitDx=0;exitDy=0;" edge="1" parent="1" source="hf1kpsBbzSXCtjSnibzN-49" target="hf1kpsBbzSXCtjSnibzN-13">
          <mxGeometry relative="1" as="geometry">
            <mxPoint x="1420" y="520" as="sourcePoint" />
            <mxPoint x="1310" y="540" as="targetPoint" />
          </mxGeometry>
        </mxCell>
        <mxCell id="hf1kpsBbzSXCtjSnibzN-53" value="N" style="resizable=0;html=1;align=right;verticalAlign=bottom;" connectable="0" vertex="1" parent="hf1kpsBbzSXCtjSnibzN-52">
          <mxGeometry x="1" relative="1" as="geometry" />
        </mxCell>
        <mxCell id="hf1kpsBbzSXCtjSnibzN-54" value="" style="endArrow=none;html=1;rounded=0;entryX=0.25;entryY=0;entryDx=0;entryDy=0;exitX=0.5;exitY=1;exitDx=0;exitDy=0;" edge="1" parent="1" source="hf1kpsBbzSXCtjSnibzN-26" target="hf1kpsBbzSXCtjSnibzN-13">
          <mxGeometry relative="1" as="geometry">
            <mxPoint x="1244.9953390593275" y="600.0021356237311" as="sourcePoint" />
            <mxPoint x="1259.64" y="635.86" as="targetPoint" />
          </mxGeometry>
        </mxCell>
        <mxCell id="hf1kpsBbzSXCtjSnibzN-55" value="" style="endArrow=none;html=1;rounded=0;entryX=1;entryY=0.5;entryDx=0;entryDy=0;exitX=0;exitY=0.5;exitDx=0;exitDy=0;" edge="1" parent="1" source="hf1kpsBbzSXCtjSnibzN-13" target="hf1kpsBbzSXCtjSnibzN-27">
          <mxGeometry relative="1" as="geometry">
            <mxPoint x="1139.9953390593164" y="622.5721356237262" as="sourcePoint" />
            <mxPoint x="1184.64" y="650.43" as="targetPoint" />
          </mxGeometry>
        </mxCell>
        <mxCell id="hf1kpsBbzSXCtjSnibzN-56" value="" style="endArrow=none;html=1;rounded=0;entryX=1;entryY=1;entryDx=0;entryDy=0;exitX=0.5;exitY=0;exitDx=0;exitDy=0;" edge="1" parent="1" source="hf1kpsBbzSXCtjSnibzN-27" target="hf1kpsBbzSXCtjSnibzN-29">
          <mxGeometry relative="1" as="geometry">
            <mxPoint x="935" y="458" as="sourcePoint" />
            <mxPoint x="935" y="489" as="targetPoint" />
          </mxGeometry>
        </mxCell>
        <mxCell id="hf1kpsBbzSXCtjSnibzN-57" value="" style="endArrow=none;html=1;rounded=0;entryX=1;entryY=1;entryDx=0;entryDy=0;exitX=0;exitY=0;exitDx=0;exitDy=0;" edge="1" parent="1" source="hf1kpsBbzSXCtjSnibzN-27" target="hf1kpsBbzSXCtjSnibzN-30">
          <mxGeometry relative="1" as="geometry">
            <mxPoint x="945" y="468" as="sourcePoint" />
            <mxPoint x="945" y="499" as="targetPoint" />
          </mxGeometry>
        </mxCell>
        <mxCell id="hf1kpsBbzSXCtjSnibzN-58" value="" style="endArrow=none;html=1;rounded=0;entryX=0.5;entryY=0;entryDx=0;entryDy=0;exitX=0;exitY=1;exitDx=0;exitDy=0;" edge="1" parent="1" source="hf1kpsBbzSXCtjSnibzN-27" target="hf1kpsBbzSXCtjSnibzN-31">
          <mxGeometry relative="1" as="geometry">
            <mxPoint x="955" y="478" as="sourcePoint" />
            <mxPoint x="955" y="509" as="targetPoint" />
          </mxGeometry>
        </mxCell>
        <mxCell id="hf1kpsBbzSXCtjSnibzN-59" value="" style="endArrow=none;html=1;rounded=0;entryX=0.5;entryY=0;entryDx=0;entryDy=0;exitX=0.5;exitY=1;exitDx=0;exitDy=0;" edge="1" parent="1" source="hf1kpsBbzSXCtjSnibzN-27" target="hf1kpsBbzSXCtjSnibzN-25">
          <mxGeometry relative="1" as="geometry">
            <mxPoint x="965" y="488" as="sourcePoint" />
            <mxPoint x="965" y="519" as="targetPoint" />
          </mxGeometry>
        </mxCell>
        <mxCell id="hf1kpsBbzSXCtjSnibzN-60" value="Promo" style="shape=rhombus;perimeter=rhombusPerimeter;whiteSpace=wrap;html=1;align=center;" vertex="1" parent="1">
          <mxGeometry x="1230" y="320" width="120" height="60" as="geometry" />
        </mxCell>
        <mxCell id="hf1kpsBbzSXCtjSnibzN-61" value="" style="endArrow=none;html=1;rounded=0;entryX=0;entryY=0;entryDx=0;entryDy=0;exitX=1;exitY=1;exitDx=0;exitDy=0;" edge="1" parent="1" source="hf1kpsBbzSXCtjSnibzN-21" target="hf1kpsBbzSXCtjSnibzN-60">
          <mxGeometry relative="1" as="geometry">
            <mxPoint x="1694.6446609406726" y="204.14213562373095" as="sourcePoint" />
            <mxPoint x="1670" y="240" as="targetPoint" />
          </mxGeometry>
        </mxCell>
        <mxCell id="hf1kpsBbzSXCtjSnibzN-62" value="" style="endArrow=none;html=1;rounded=0;entryX=1;entryY=0;entryDx=0;entryDy=0;exitX=0;exitY=1;exitDx=0;exitDy=0;" edge="1" parent="1" source="hf1kpsBbzSXCtjSnibzN-20" target="hf1kpsBbzSXCtjSnibzN-60">
          <mxGeometry relative="1" as="geometry">
            <mxPoint x="1704.6446609406726" y="214.14213562373095" as="sourcePoint" />
            <mxPoint x="1680" y="250" as="targetPoint" />
          </mxGeometry>
        </mxCell>
        <mxCell id="hf1kpsBbzSXCtjSnibzN-63" value="" style="endArrow=none;html=1;rounded=0;entryX=0;entryY=0.5;entryDx=0;entryDy=0;exitX=1;exitY=0.5;exitDx=0;exitDy=0;" edge="1" parent="1" source="hf1kpsBbzSXCtjSnibzN-60" target="hf1kpsBbzSXCtjSnibzN-12">
          <mxGeometry relative="1" as="geometry">
            <mxPoint x="1180" y="445" as="sourcePoint" />
            <mxPoint x="1245" y="380" as="targetPoint" />
            <Array as="points" />
          </mxGeometry>
        </mxCell>
        <mxCell id="hf1kpsBbzSXCtjSnibzN-64" value="1" style="resizable=0;html=1;align=right;verticalAlign=bottom;" connectable="0" vertex="1" parent="hf1kpsBbzSXCtjSnibzN-63">
          <mxGeometry x="1" relative="1" as="geometry">
            <mxPoint y="20" as="offset" />
          </mxGeometry>
        </mxCell>
        <mxCell id="hf1kpsBbzSXCtjSnibzN-65" value="" style="endArrow=none;html=1;rounded=0;entryX=1;entryY=0.5;entryDx=0;entryDy=0;exitX=0;exitY=0.5;exitDx=0;exitDy=0;" edge="1" parent="1" source="hf1kpsBbzSXCtjSnibzN-60" target="hf1kpsBbzSXCtjSnibzN-13">
          <mxGeometry relative="1" as="geometry">
            <mxPoint x="1410" y="420" as="sourcePoint" />
            <mxPoint x="1520" y="270" as="targetPoint" />
            <Array as="points" />
          </mxGeometry>
        </mxCell>
        <mxCell id="hf1kpsBbzSXCtjSnibzN-66" value="1" style="resizable=0;html=1;align=right;verticalAlign=bottom;" connectable="0" vertex="1" parent="hf1kpsBbzSXCtjSnibzN-65">
          <mxGeometry x="1" relative="1" as="geometry">
            <mxPoint x="10.2" y="20" as="offset" />
          </mxGeometry>
        </mxCell>
        <mxCell id="hf1kpsBbzSXCtjSnibzN-67" value="" style="endArrow=none;html=1;rounded=0;entryX=0.5;entryY=1;entryDx=0;entryDy=0;exitX=0.5;exitY=0;exitDx=0;exitDy=0;" edge="1" parent="1" source="hf1kpsBbzSXCtjSnibzN-60" target="hf1kpsBbzSXCtjSnibzN-22">
          <mxGeometry relative="1" as="geometry">
            <mxPoint x="1281" y="270" as="sourcePoint" />
            <mxPoint x="1300" y="190" as="targetPoint" />
          </mxGeometry>
        </mxCell>
        <mxCell id="hf1kpsBbzSXCtjSnibzN-68" value="N" style="resizable=0;html=1;align=right;verticalAlign=bottom;" connectable="0" vertex="1" parent="hf1kpsBbzSXCtjSnibzN-67">
          <mxGeometry x="1" relative="1" as="geometry">
            <mxPoint y="20.07" as="offset" />
          </mxGeometry>
        </mxCell>
        <mxCell id="hf1kpsBbzSXCtjSnibzN-69" value="" style="endArrow=none;html=1;rounded=0;exitX=0.5;exitY=1;exitDx=0;exitDy=0;entryX=0.5;entryY=0;entryDx=0;entryDy=0;" edge="1" parent="1" source="hf1kpsBbzSXCtjSnibzN-19" target="hf1kpsBbzSXCtjSnibzN-22">
          <mxGeometry relative="1" as="geometry">
            <mxPoint x="1585.3553390593274" y="243.90213562373094" as="sourcePoint" />
            <mxPoint x="1260" y="140" as="targetPoint" />
          </mxGeometry>
        </mxCell>
        <mxCell id="hf1kpsBbzSXCtjSnibzN-74" value="Data_Pemasukan" style="ellipse;whiteSpace=wrap;html=1;align=center;" vertex="1" parent="1">
          <mxGeometry x="1240" y="629" width="110" height="43" as="geometry" />
        </mxCell>
        <mxCell id="hf1kpsBbzSXCtjSnibzN-75" value="Data_Pengeluaran" style="ellipse;whiteSpace=wrap;html=1;align=center;" vertex="1" parent="1">
          <mxGeometry x="1350" y="603.5" width="110" height="38.5" as="geometry" />
        </mxCell>
        <mxCell id="hf1kpsBbzSXCtjSnibzN-76" value="Untung_Rugi" style="ellipse;whiteSpace=wrap;html=1;align=center;" vertex="1" parent="1">
          <mxGeometry x="1130" y="602" width="100" height="40" as="geometry" />
        </mxCell>
        <mxCell id="hf1kpsBbzSXCtjSnibzN-77" value="" style="endArrow=none;html=1;rounded=0;entryX=1;entryY=0;entryDx=0;entryDy=0;exitX=0;exitY=1;exitDx=0;exitDy=0;" edge="1" parent="1" source="hf1kpsBbzSXCtjSnibzN-16" target="hf1kpsBbzSXCtjSnibzN-76">
          <mxGeometry relative="1" as="geometry">
            <mxPoint x="1155" y="515" as="sourcePoint" />
            <mxPoint x="1185" y="578" as="targetPoint" />
          </mxGeometry>
        </mxCell>
        <mxCell id="hf1kpsBbzSXCtjSnibzN-78" value="" style="endArrow=none;html=1;rounded=0;entryX=0.5;entryY=0;entryDx=0;entryDy=0;exitX=0.5;exitY=1;exitDx=0;exitDy=0;" edge="1" parent="1" source="hf1kpsBbzSXCtjSnibzN-16" target="hf1kpsBbzSXCtjSnibzN-74">
          <mxGeometry relative="1" as="geometry">
            <mxPoint x="1165" y="525" as="sourcePoint" />
            <mxPoint x="1195" y="588" as="targetPoint" />
          </mxGeometry>
        </mxCell>
        <mxCell id="hf1kpsBbzSXCtjSnibzN-79" value="" style="endArrow=none;html=1;rounded=0;entryX=0;entryY=0;entryDx=0;entryDy=0;exitX=1;exitY=1;exitDx=0;exitDy=0;" edge="1" parent="1" source="hf1kpsBbzSXCtjSnibzN-16" target="hf1kpsBbzSXCtjSnibzN-75">
          <mxGeometry relative="1" as="geometry">
            <mxPoint x="1175" y="535" as="sourcePoint" />
            <mxPoint x="1205" y="598" as="targetPoint" />
          </mxGeometry>
        </mxCell>
        <mxCell id="hf1kpsBbzSXCtjSnibzN-80" value="Simpan&lt;span style=&quot;color: rgba(0 , 0 , 0 , 0) ; font-family: monospace ; font-size: 0px&quot;&gt;%3CmxGraphModel%3E%3Croot%3E%3CmxCell%20id%3D%220%22%2F%3E%3CmxCell%20id%3D%221%22%20parent%3D%220%22%2F%3E%3CmxCell%20id%3D%222%22%20value%3D%22Promo%22%20style%3D%22shape%3Drhombus%3Bperimeter%3DrhombusPerimeter%3BwhiteSpace%3Dwrap%3Bhtml%3D1%3Balign%3Dcenter%3B%22%20vertex%3D%221%22%20parent%3D%221%22%3E%3CmxGeometry%20x%3D%221230%22%20y%3D%22320%22%20width%3D%22120%22%20height%3D%2260%22%20as%3D%22geometry%22%2F%3E%3C%2FmxCell%3E%3C%2Froot%3E%3C%2FmxGraphModel%3E&lt;/span&gt;" style="shape=rhombus;perimeter=rhombusPerimeter;whiteSpace=wrap;html=1;align=center;" vertex="1" parent="1">
          <mxGeometry x="1045" y="523" width="120" height="60" as="geometry" />
        </mxCell>
        <mxCell id="hf1kpsBbzSXCtjSnibzN-81" value="Update" style="shape=rhombus;perimeter=rhombusPerimeter;whiteSpace=wrap;html=1;align=center;" vertex="1" parent="1">
          <mxGeometry x="1390" y="523" width="120" height="60" as="geometry" />
        </mxCell>
        <mxCell id="hf1kpsBbzSXCtjSnibzN-82" value="" style="endArrow=none;html=1;rounded=0;entryX=0.5;entryY=1;entryDx=0;entryDy=0;exitX=0.5;exitY=0;exitDx=0;exitDy=0;" edge="1" parent="1" source="hf1kpsBbzSXCtjSnibzN-80" target="hf1kpsBbzSXCtjSnibzN-13">
          <mxGeometry relative="1" as="geometry">
            <mxPoint x="1250" y="547" as="sourcePoint" />
            <mxPoint x="1250" y="377" as="targetPoint" />
          </mxGeometry>
        </mxCell>
        <mxCell id="hf1kpsBbzSXCtjSnibzN-83" value="N" style="resizable=0;html=1;align=right;verticalAlign=bottom;" connectable="0" vertex="1" parent="hf1kpsBbzSXCtjSnibzN-82">
          <mxGeometry x="1" relative="1" as="geometry">
            <mxPoint y="20.07" as="offset" />
          </mxGeometry>
        </mxCell>
        <mxCell id="hf1kpsBbzSXCtjSnibzN-84" value="" style="endArrow=none;html=1;rounded=0;entryX=0.5;entryY=1;entryDx=0;entryDy=0;exitX=0.5;exitY=0;exitDx=0;exitDy=0;" edge="1" parent="1" source="hf1kpsBbzSXCtjSnibzN-81" target="hf1kpsBbzSXCtjSnibzN-12">
          <mxGeometry relative="1" as="geometry">
            <mxPoint x="1470" y="560" as="sourcePoint" />
            <mxPoint x="1470" y="390" as="targetPoint" />
          </mxGeometry>
        </mxCell>
        <mxCell id="hf1kpsBbzSXCtjSnibzN-85" value="N" style="resizable=0;html=1;align=right;verticalAlign=bottom;" connectable="0" vertex="1" parent="hf1kpsBbzSXCtjSnibzN-84">
          <mxGeometry x="1" relative="1" as="geometry">
            <mxPoint y="20.07" as="offset" />
          </mxGeometry>
        </mxCell>
        <mxCell id="hf1kpsBbzSXCtjSnibzN-86" value="" style="endArrow=none;html=1;rounded=0;entryX=0;entryY=0.5;entryDx=0;entryDy=0;exitX=1;exitY=0.5;exitDx=0;exitDy=0;" edge="1" parent="1" source="hf1kpsBbzSXCtjSnibzN-80" target="hf1kpsBbzSXCtjSnibzN-16">
          <mxGeometry relative="1" as="geometry">
            <mxPoint x="1240" y="360" as="sourcePoint" />
            <mxPoint x="1165" y="360" as="targetPoint" />
            <Array as="points" />
          </mxGeometry>
        </mxCell>
        <mxCell id="hf1kpsBbzSXCtjSnibzN-87" value="1" style="resizable=0;html=1;align=right;verticalAlign=bottom;" connectable="0" vertex="1" parent="hf1kpsBbzSXCtjSnibzN-86">
          <mxGeometry x="1" relative="1" as="geometry">
            <mxPoint x="-1.4700000000000006" y="20" as="offset" />
          </mxGeometry>
        </mxCell>
        <mxCell id="hf1kpsBbzSXCtjSnibzN-88" value="" style="endArrow=none;html=1;rounded=0;entryX=1;entryY=0.5;entryDx=0;entryDy=0;exitX=0;exitY=0.5;exitDx=0;exitDy=0;" edge="1" parent="1" source="hf1kpsBbzSXCtjSnibzN-81" target="hf1kpsBbzSXCtjSnibzN-16">
          <mxGeometry relative="1" as="geometry">
            <mxPoint x="1250" y="370" as="sourcePoint" />
            <mxPoint x="1175" y="370" as="targetPoint" />
            <Array as="points" />
          </mxGeometry>
        </mxCell>
        <mxCell id="hf1kpsBbzSXCtjSnibzN-89" value="1" style="resizable=0;html=1;align=right;verticalAlign=bottom;" connectable="0" vertex="1" parent="hf1kpsBbzSXCtjSnibzN-88">
          <mxGeometry x="1" relative="1" as="geometry">
            <mxPoint x="10.2" y="20" as="offset" />
          </mxGeometry>
        </mxCell>
      </root>
    </mxGraphModel>
  </diagram>
</mxfile>
